#Comment line ignore any data following # character 
#Hierarchical Translation and Rotation (.htr) file 
[Header]	
#Header keywords are followed by a single value 
FileType HTR		#Single word string
DataType HTRS		#Translation followed by rotation and scale data
FileVersion 1		#integer
NumSegments 64		#integer
NumFrames 3		#integer
DataFrameRate 30		#integer, data frame rate in this file
EulerRotationOrder ZYX
CalibrationUnits mm
RotationUnits Degrees
GlobalAxisofGravity Y
BoneLengthAxis Y
ScaleFactor 1.00
[SegmentNames&Hierarchy]
#CHILD	PARENT
Pinger_Root GLOBAL
Pelvis Pinger_Root
L_Hip Pelvis
R_Hip Pelvis
Rear_Leg01 Pelvis
Spine1 Pelvis
L_Leg01 L_Hip
L_Leg02 L_Leg01
L_Leg03 L_Leg02
L_Foot L_Leg03
L_Toe1_01 L_Foot
L_Toe2_01 L_Foot
L_Toe3_01 L_Foot
planeAlignerLeft L_Foot
L_Toe1_02 L_Toe1_01
L_Toe1_03 L_Toe1_02
L_Toe2_02 L_Toe2_01
L_Toe2_03 L_Toe2_02
L_Toe3_02 L_Toe3_01
L_Toe3_03 L_Toe3_02
planeLockWeightLeft planeAlignerLeft
R_Leg01 R_Hip
R_Leg02 R_Leg01
R_Leg03 R_Leg02
R_Foot R_Leg03
planeAlignerRight R_Foot
R_Toe1_01 R_Foot
R_Toe2_01 R_Foot
R_Toe3_01 R_Foot
planeLockWeightRight planeAlignerRight
R_Toe1_02 R_Toe1_01
R_Toe1_03 R_Toe1_02
R_Toe2_02 R_Toe2_01
R_Toe2_03 R_Toe2_02
R_Toe3_02 R_Toe3_01
R_Toe3_03 R_Toe3_02
Rear_Leg02 Rear_Leg01
Rear_Leg03 Rear_Leg02
Rear_Leg04 Rear_Leg03
Rear_Foot Rear_Leg04
planeAlignerCenter Rear_Foot
Rear_Toe1_01 Rear_Foot
Rear_Toe2_01 Rear_Foot
Rear_Toe3_01 Rear_Foot
planeLockWeightCenter planeAlignerCenter
Rear_Toe1_02 Rear_Toe1_01
Rear_Toe1_03 Rear_Toe1_02
Rear_Toe2_02 Rear_Toe2_01
Rear_Toe2_03 Rear_Toe2_02
Rear_Toe3_02 Rear_Toe3_01
Rear_Toe3_03 Rear_Toe3_02
Back_Bone Spine1
Head Spine1
Motor_Bone Back_Bone
Ping_Mechanism Back_Bone
BN_LookIK Head
bottomMouth Head
L_Mouth01 Head
L_mouthFront Head
mouthGun Head
R_Mouth01 Head
R_mouthFront Head
TopMouth Head
weapon_bone Head
[BasePosition]
#SegmentName Tx, Ty, Tz, Rx, Ry, Rz, BoneLength
Pinger_Root 0.000000 0.000000 0.000000 -90.000000 0.000000 0.000000 10.000000 
Pelvis 0.000000 0.000000 0.000000 0.000000 0.000000 0.000000 10.000000 
L_Hip 0.000000 0.000000 0.000000 0.000000 0.000000 0.000000 10.000000 
R_Hip 0.000000 0.000000 0.000000 0.000000 0.000000 0.000000 10.000000 
Rear_Leg01 0.000000 0.000000 0.000000 0.000000 0.000000 0.000000 10.000000 
Spine1 0.000000 0.000000 0.000000 0.000000 0.000000 0.000000 10.000000 
L_Leg01 0.000000 0.000000 0.000000 0.000000 0.000000 0.000000 10.000000 
L_Leg02 0.000000 0.000000 0.000000 0.000000 0.000000 0.000000 10.000000 
L_Leg03 0.000000 0.000000 0.000000 0.000000 0.000000 0.000000 10.000000 
L_Foot 0.000000 0.000000 0.000000 0.000000 0.000000 0.000000 10.000000 
L_Toe1_01 0.000000 0.000000 0.000000 0.000000 0.000000 0.000000 10.000000 
L_Toe2_01 0.000000 0.000000 0.000000 0.000000 0.000000 0.000000 10.000000 
L_Toe3_01 0.000000 0.000000 0.000000 0.000000 0.000000 0.000000 10.000000 
planeAlignerLeft 0.000000 0.000000 0.000000 0.000000 0.000000 0.000000 10.000000 
L_Toe1_02 0.000000 0.000000 0.000000 0.000000 0.000000 0.000000 10.000000 
L_Toe1_03 0.000000 0.000000 0.000000 0.000000 0.000000 0.000000 10.000000 
L_Toe2_02 0.000000 0.000000 0.000000 0.000000 0.000000 0.000000 10.000000 
L_Toe2_03 0.000000 0.000000 0.000000 0.000000 0.000000 0.000000 10.000000 
L_Toe3_02 0.000000 0.000000 0.000000 0.000000 0.000000 0.000000 10.000000 
L_Toe3_03 0.000000 0.000000 0.000000 0.000000 0.000000 0.000000 10.000000 
planeLockWeightLeft 0.000000 0.000000 0.000000 0.000000 0.000000 0.000000 10.000000 
R_Leg01 0.000000 0.000000 0.000000 0.000000 0.000000 0.000000 10.000000 
R_Leg02 0.000000 0.000000 0.000000 0.000000 0.000000 0.000000 10.000000 
R_Leg03 0.000000 0.000000 0.000000 0.000000 0.000000 0.000000 10.000000 
R_Foot 0.000000 0.000000 0.000000 0.000000 0.000000 0.000000 10.000000 
planeAlignerRight 0.000000 0.000000 0.000000 0.000000 0.000000 0.000000 10.000000 
R_Toe1_01 0.000000 0.000000 0.000000 0.000000 0.000000 0.000000 10.000000 
R_Toe2_01 0.000000 0.000000 0.000000 0.000000 0.000000 0.000000 10.000000 
R_Toe3_01 0.000000 0.000000 0.000000 0.000000 0.000000 0.000000 10.000000 
planeLockWeightRight 0.000000 0.000000 0.000000 0.000000 0.000000 0.000000 10.000000 
R_Toe1_02 0.000000 0.000000 0.000000 0.000000 0.000000 0.000000 10.000000 
R_Toe1_03 0.000000 0.000000 0.000000 0.000000 0.000000 0.000000 10.000000 
R_Toe2_02 0.000000 0.000000 0.000000 0.000000 0.000000 0.000000 10.000000 
R_Toe2_03 0.000000 0.000000 0.000000 0.000000 0.000000 0.000000 10.000000 
R_Toe3_02 0.000000 0.000000 0.000000 0.000000 0.000000 0.000000 10.000000 
R_Toe3_03 0.000000 0.000000 0.000000 0.000000 0.000000 0.000000 10.000000 
Rear_Leg02 0.000000 0.000000 0.000000 0.000000 0.000000 0.000000 10.000000 
Rear_Leg03 0.000000 0.000000 0.000000 0.000000 0.000000 0.000000 10.000000 
Rear_Leg04 0.000000 0.000000 0.000000 0.000000 0.000000 0.000000 10.000000 
Rear_Foot 0.000000 0.000000 0.000000 0.000000 0.000000 0.000000 10.000000 
planeAlignerCenter 0.000000 0.000000 0.000000 0.000000 0.000000 0.000000 10.000000 
Rear_Toe1_01 0.000000 0.000000 0.000000 0.000000 0.000000 0.000000 10.000000 
Rear_Toe2_01 0.000000 0.000000 0.000000 0.000000 0.000000 0.000000 10.000000 
Rear_Toe3_01 0.000000 0.000000 0.000000 0.000000 0.000000 0.000000 10.000000 
planeLockWeightCenter 0.000000 0.000000 0.000000 0.000000 0.000000 0.000000 10.000000 
Rear_Toe1_02 0.000000 0.000000 0.000000 0.000000 0.000000 0.000000 10.000000 
Rear_Toe1_03 0.000000 0.000000 0.000000 0.000000 0.000000 0.000000 10.000000 
Rear_Toe2_02 0.000000 0.000000 0.000000 0.000000 0.000000 0.000000 10.000000 
Rear_Toe2_03 0.000000 0.000000 0.000000 0.000000 0.000000 0.000000 10.000000 
Rear_Toe3_02 0.000000 0.000000 0.000000 0.000000 0.000000 0.000000 10.000000 
Rear_Toe3_03 0.000000 0.000000 0.000000 0.000000 0.000000 0.000000 10.000000 
Back_Bone 0.000000 0.000000 0.000000 0.000000 0.000000 0.000000 10.000000 
Head 0.000000 0.000000 0.000000 0.000000 0.000000 0.000000 10.000000 
Motor_Bone 0.000000 0.000000 0.000000 0.000000 0.000000 0.000000 10.000000 
Ping_Mechanism 0.000000 0.000000 0.000000 0.000000 0.000000 0.000000 10.000000 
BN_LookIK 0.000000 0.000000 0.000000 0.000000 0.000000 0.000000 10.000000 
bottomMouth 0.000000 0.000000 0.000000 0.000000 0.000000 0.000000 10.000000 
L_Mouth01 0.000000 0.000000 0.000000 0.000000 0.000000 0.000000 10.000000 
L_mouthFront 0.000000 0.000000 0.000000 0.000000 0.000000 0.000000 10.000000 
mouthGun 0.000000 0.000000 0.000000 0.000000 0.000000 0.000000 10.000000 
R_Mouth01 0.000000 0.000000 0.000000 0.000000 0.000000 0.000000 10.000000 
R_mouthFront 0.000000 0.000000 0.000000 0.000000 0.000000 0.000000 10.000000 
TopMouth 0.000000 0.000000 0.000000 0.000000 0.000000 0.000000 10.000000 
weapon_bone 0.000000 0.000000 0.000000 0.000000 0.000000 0.000000 10.000000 
#Beginning of Data. Separated by tabs
#Fr	Tx	Ty	Tz	Rx	Ry	Rz	SF
[Pinger_Root]
46 2500.000000 0.000220 0.000000 -0.000075 -0.000000 -0.000020 2500.000000
47 2500.000000 0.000220 0.000000 -0.000075 -0.000000 -0.000020 2500.000000
48 2500.000000 0.000220 0.000000 -0.000075 -0.000000 -0.000020 2500.000000
[Pelvis]
46 422.164368 1055.039673 4389.770996 -107.208427 -69.109680 92.712036 4534.470215
47 424.738586 1024.934937 4373.503418 -105.877937 -68.220970 91.155586 4512.031250
48 426.203705 992.803894 4350.817383 -104.469437 -67.649094 89.739868 4482.958984
[L_Hip]
46 5.766392 125.831482 872.656799 176.781082 -80.388649 92.654457 881.701050
47 5.766392 125.831482 872.656799 173.958878 -79.304764 95.710182 881.701050
48 5.766392 125.831482 872.656799 171.422836 -78.076698 98.536743 881.701050
[R_Hip]
46 5.765438 125.836372 -872.654907 5.596637 80.803947 94.455696 881.699829
47 5.765438 125.836372 -872.654907 10.096139 79.990120 98.757652 881.699829
48 5.765438 125.836372 -872.654907 13.973907 79.086990 102.458382 881.699829
[Rear_Leg01]
46 -192.298416 -925.602966 -0.001907 176.762573 -30.803082 175.381714 945.367432
47 -192.298416 -925.602966 -0.001907 174.494583 -30.682808 178.721695 945.367432
48 -192.298416 -925.602966 -0.001907 173.791733 -29.894539 -178.717072 945.367432
[Spine1]
46 290.604584 5.007505 0.000477 12.311713 6.551661 8.103151 290.647736
47 290.604584 5.007505 0.000477 12.466414 6.050928 6.744035 290.647736
48 290.604584 5.007505 0.000477 12.417542 5.499518 5.757025 290.647736
[L_Leg01]
46 761.932007 -0.002384 -0.069261 15.795096 -39.986012 -7.825239 761.932068
47 761.932007 -0.002384 -0.069261 12.046334 -39.698940 -3.811475 761.932068
48 761.932007 -0.002384 -0.069261 9.368831 -39.185482 -0.980642 761.932068
[L_Leg02]
46 1441.140503 -0.000954 -0.000715 2.144085 -0.350012 -133.619095 1441.140503
47 1441.140503 -0.000954 -0.000715 1.756524 -0.329021 -132.493393 1441.140503
48 1441.140503 -0.000954 -0.000715 1.369451 -0.300420 -131.367844 1441.140503
[L_Leg03]
46 1686.963989 -0.000715 -0.000954 -0.004565 0.000869 111.547043 1686.963989
47 1686.963989 -0.000715 -0.000954 0.005196 -0.004402 108.754143 1686.963989
48 1686.963989 -0.000715 -0.000954 0.012184 -0.005344 106.893608 1686.963989
[L_Foot]
46 3041.570068 -30.715107 11.297464 -14.460233 5.515387 47.309765 3041.746094
47 3041.570068 -30.715107 11.297464 -13.789390 5.792209 47.322025 3041.746094
48 3041.570068 -30.715107 11.297464 -13.118117 6.068880 47.337517 3041.746094
[L_Toe1_01]
46 -188.216690 -224.732346 -21.137953 89.161797 -4.295948 -153.923859 293.899567
47 -188.216690 -224.732346 -21.137953 89.362312 -3.446845 -156.953522 293.899567
48 -188.216690 -224.732346 -21.137953 89.610352 -2.659494 -159.127502 293.899567
[L_Toe2_01]
46 200.746536 -219.926590 148.838394 -77.251282 -12.617056 -49.236706 332.896027
47 200.746536 -219.926590 148.838394 -78.821877 -13.691391 -44.992561 332.896027
48 200.746536 -219.926590 148.838394 -80.477348 -14.648935 -40.700535 332.896027
[L_Toe3_01]
46 188.832520 -219.859131 -191.078659 -109.599434 22.165346 -54.126198 347.140900
47 188.832520 -219.859131 -191.078659 -108.534637 25.972763 -50.422146 347.140900
48 188.832520 -219.859131 -191.078659 -107.369888 29.284184 -47.264099 347.140900
[planeAlignerLeft]
46 117.960899 -665.055786 6.063664 171.066818 -89.420204 98.458527 675.463379
47 74.256508 -600.531189 -11.848643 171.085907 -88.969978 98.082664 605.220703
48 37.579742 -547.242493 -26.783237 170.985153 -88.519852 97.826462 549.184753
[L_Toe1_02]
46 413.761139 0.000477 0.000000 0.001386 -25.718660 0.001386 413.761139
47 413.761139 0.000477 0.000000 0.001388 -25.515745 0.001388 413.761139
48 413.761139 0.000477 0.000000 0.001393 -24.781523 0.001393 413.761139
[L_Toe1_03]
46 464.317322 0.000358 -0.000089 0.003255 47.725403 0.003255 464.317322
47 464.317322 0.000358 -0.000089 0.003009 44.094505 0.003009 464.317322
48 464.317322 0.000358 -0.000089 0.002730 39.068462 0.002730 464.317322
[L_Toe2_02]
46 342.235809 -0.000477 0.000238 0.001195 -68.377075 0.001195 342.235809
47 342.235809 -0.000477 0.000238 0.001185 -74.239143 0.001185 342.235809
48 342.235809 -0.000477 0.000238 0.001181 -77.366882 0.001181 342.235809
[L_Toe2_03]
46 420.210846 -0.000715 0.000000 0.009679 76.071671 0.009679 420.210846
47 420.210846 -0.000715 0.000000 0.000000 89.529778 0.003501 420.210846
48 420.210846 -0.000715 0.000000 -179.995895 78.746643 -179.992386 420.210846
[L_Toe3_02]
46 329.270111 0.000954 0.000000 0.001178 -80.415489 0.001178 329.270111
47 329.270111 0.000954 0.000000 0.001176 -82.319901 0.001176 329.270111
48 329.270111 0.000954 0.000000 0.001176 -83.355392 0.001176 329.270111
[L_Toe3_03]
46 439.137451 -0.001907 0.000954 -179.995911 78.700089 -179.992386 439.137451
47 439.137451 -0.001907 0.000954 -179.998428 70.269470 -179.994873 439.137451
48 439.137451 -0.001907 0.000954 179.991211 63.936581 179.998383 439.137451
[planeLockWeightLeft]
46 1000.000000 0.000000 -0.000190 -0.011826 -0.004376 0.005620 1000.000000
47 1000.000000 0.000000 -0.000195 -0.011826 -0.004376 0.005620 1000.000000
48 1000.000000 0.000000 -0.000200 -0.011826 -0.004376 0.005620 1000.000000
[R_Leg01]
46 761.455627 -0.001907 -0.000358 120.275589 -58.503426 65.111252 761.455688
47 761.455627 -0.001907 -0.000358 121.756729 -58.519806 62.891624 761.455688
48 761.455627 -0.001907 -0.000358 123.589806 -57.996918 60.207592 761.455688
[R_Leg02]
46 1441.140625 0.000000 -0.000238 -0.477329 -0.035748 -125.889938 1441.140625
47 1441.140625 0.000000 -0.000238 -0.562404 -0.052800 -126.357903 1441.140625
48 1441.140625 0.000000 -0.000238 -0.647338 -0.070547 -126.825836 1441.140625
[R_Leg03]
46 1686.963989 0.000954 0.001431 0.047248 -0.021196 122.799698 1686.963989
47 1686.963989 0.000954 0.001431 0.051452 -0.025064 124.371025 1686.963989
48 1686.963989 0.000954 0.001431 0.055549 -0.029046 125.942352 1686.963989
[R_Foot]
46 3041.560059 -30.531288 -11.204481 4.917491 -5.276787 49.612103 3041.734131
47 3041.560059 -30.531288 -11.204481 4.112861 -5.479827 49.108433 3041.734131
48 3041.560059 -30.531288 -11.204481 3.052804 -5.807411 49.003128 3041.734131
[planeAlignerRight]
46 -23.064676 -802.552551 -57.997086 -34.413277 -89.403900 -55.983231 804.975952
47 -19.094009 -797.318237 -56.452515 -35.782753 -88.937614 -54.921299 799.542236
48 -17.840599 -790.541199 -59.387608 -36.335899 -88.059021 -54.932018 792.969421
[R_Toe1_01]
46 -188.383347 -224.864899 21.052242 90.643883 -1.590487 -146.722488 294.101532
47 -188.383347 -224.864899 21.052242 90.324677 -2.008162 -147.827881 294.101532
48 -188.383347 -224.864899 21.052242 89.684158 -2.218385 -149.278030 294.101532
[R_Toe2_01]
46 200.637817 -220.002121 -148.787384 -100.718895 1.164443 -54.826855 332.857574
47 200.637817 -220.002121 -148.787384 -100.248749 1.807917 -54.875027 332.857574
48 200.637817 -220.002121 -148.787384 -99.778915 2.451772 -54.917927 332.857574
[R_Toe3_01]
46 188.606735 -220.092957 191.126343 -59.514572 -29.866249 -71.296967 347.192566
47 188.606735 -220.092957 191.126343 -59.855797 -29.600189 -71.087814 347.192566
48 188.606735 -220.092957 191.126343 -60.395210 -28.828897 -71.088234 347.192566
[planeLockWeightRight]
46 999.999939 0.000000 -0.000265 -0.011823 -0.004379 -0.000027 999.999939
47 999.999939 0.000000 -0.000260 -0.011823 -0.004379 -0.000027 999.999939
48 999.999939 0.000000 -0.000256 -0.011823 -0.004379 -0.000027 999.999939
[R_Toe1_02]
46 413.762085 0.000477 -0.000119 0.001386 -25.707581 0.001386 413.762085
47 413.762085 0.000477 -0.000119 0.001385 -25.852644 0.001385 413.762085
48 413.762085 0.000477 -0.000119 0.001384 -25.997702 0.001384 413.762085
[R_Toe1_03]
46 464.317810 0.000000 0.001088 0.003242 47.529579 0.003242 464.317810
47 464.317810 0.000000 0.001088 0.003465 50.384327 0.003465 464.317810
48 464.317810 0.000000 0.001088 0.003722 53.237312 0.003722 464.317810
[R_Toe2_02]
46 342.234741 -0.000954 0.000238 0.001213 -60.811230 0.001213 342.234741
47 342.234741 -0.000954 0.000238 0.001214 -60.352440 0.001214 342.234741
48 342.234741 -0.000954 0.000238 0.001214 -60.249474 0.001214 342.234741
[R_Toe2_03]
46 420.210846 0.000715 -0.000268 -0.004190 62.148705 -0.000587 420.210846
47 420.210846 0.000715 -0.000268 -0.004130 61.388798 -0.000522 420.210846
48 420.210846 0.000715 -0.000268 -0.004118 61.227825 -0.000508 420.210846
[R_Toe3_02]
46 329.270355 -0.000477 -0.000954 -0.002385 -63.784267 -0.002385 329.270355
47 329.270355 -0.000477 -0.000954 -0.002391 -62.700794 -0.002391 329.270355
48 329.270355 -0.000477 -0.000954 -0.002393 -62.174503 -0.002393 329.270355
[R_Toe3_03]
46 439.137939 0.000238 0.001431 0.004907 62.322834 0.004907 439.137939
47 439.137939 0.000238 0.001431 0.004659 60.820267 0.004659 439.137939
48 439.137939 0.000238 0.001431 0.004535 60.001915 0.004535 439.137939
[Rear_Leg02]
46 1162.777710 -0.029802 0.005960 13.048677 -15.175447 -125.837616 1162.777710
47 1162.777710 -0.029802 0.005960 12.735714 -14.951611 -120.796585 1162.777710
48 1162.777710 -0.029802 0.005960 13.780029 -13.449264 -122.209145 1162.777710
[Rear_Leg03]
46 607.192505 -0.013351 -0.073195 0.010216 -0.005638 74.136208 607.192505
47 607.192505 -0.013351 -0.073195 0.010227 -0.005618 73.915062 607.192505
48 607.192505 -0.013351 -0.073195 0.010159 -0.005740 75.289070 607.192505
[Rear_Leg04]
46 995.874512 -0.020504 -0.011921 -0.045272 -0.017855 80.368172 995.874573
47 995.874512 -0.020504 -0.011921 -0.045248 -0.017917 80.212891 995.874573
48 995.874512 -0.020504 -0.011921 -0.045842 -0.016336 84.190262 995.874573
[Rear_Foot]
46 3096.176270 -0.067472 -0.041425 -142.101974 56.658474 17.247143 3096.176270
47 3096.176270 -0.067472 -0.041425 -142.389725 56.961369 15.427825 3096.176270
48 3096.176270 -0.067472 -0.041425 -141.014893 58.530624 12.837910 3096.176270
[planeAlignerCenter]
46 -100.500313 -140.948105 -738.723328 1.141673 -0.001643 179.998322 758.734985
47 -119.266914 -186.625992 -757.596985 1.569525 -0.001637 179.998306 789.307922
48 -114.935837 -173.595215 -783.265320 1.997377 -0.001631 179.998306 810.462891
[Rear_Toe1_01]
46 0.653352 83.966492 -371.173737 3.294385 20.755865 96.438873 380.553192
47 0.653352 83.966492 -371.173737 4.375689 22.527773 97.894104 380.553192
48 0.653352 83.966492 -371.173737 4.701082 24.743055 97.862755 380.553192
[Rear_Toe2_01]
46 178.200760 -294.826019 -362.060547 -4.976110 45.186977 -81.994728 499.765686
47 178.200760 -294.826019 -362.060547 -5.931894 43.925663 -83.743088 499.765686
48 178.200760 -294.826019 -362.060547 -6.638208 46.720688 -83.751152 499.765686
[Rear_Toe3_01]
46 -153.359680 -308.780914 -362.060852 -0.783208 43.107681 -113.014618 499.952881
47 -153.359680 -308.780914 -362.060852 -0.521410 40.000328 -112.926781 499.952881
48 -153.359680 -308.780914 -362.060852 -0.679406 43.909554 -113.268204 499.952881
[planeLockWeightCenter]
46 1000.000488 0.000496 -0.000051 -0.011814 -0.004373 -0.000015 1000.000488
47 1000.000488 0.000496 -0.000048 -0.011814 -0.004373 -0.000015 1000.000488
48 740.745850 0.000381 -0.000010 -0.011814 -0.004373 -0.000015 740.745850
[Rear_Toe1_02]
46 379.707825 0.194073 0.000477 -0.006679 -31.240036 -0.006679 379.707855
47 379.707825 0.194073 0.000477 -0.006694 -30.788601 -0.006694 379.707855
48 379.707825 0.194073 0.000477 -0.006709 -30.337181 -0.006709 379.707855
[Rear_Toe1_03]
46 500.129700 0.165701 0.000119 -179.992752 77.987366 -179.996262 500.129761
47 500.129700 0.165701 0.000119 -179.993942 74.609901 -179.997482 500.129761
48 500.129700 0.165701 0.000119 -179.994461 72.485825 -179.998001 500.129761
[Rear_Toe2_02]
46 340.494507 0.000238 -0.000954 0.001196 -67.893799 0.001196 340.494507
47 340.494507 0.000238 -0.000954 0.001212 -61.074753 0.001212 340.494507
48 340.494507 0.000238 -0.000954 0.001197 -67.167702 0.001197 340.494507
[Rear_Toe2_03]
46 433.103577 0.000000 0.000238 0.005857 66.881447 0.005857 433.103546
47 433.103577 0.000000 0.000238 0.004195 57.504826 0.004195 433.103546
48 433.103577 0.000000 0.000238 0.005599 65.799713 0.005599 433.103546
[Rear_Toe3_02]
46 340.494141 -0.000358 -0.000477 -0.002408 -59.450871 -0.002408 340.494171
47 340.494141 -0.000358 -0.000477 -0.002482 -48.800381 -0.002482 340.494171
48 340.494141 -0.000358 -0.000477 -0.002422 -57.156876 -0.002422 340.494171
[Rear_Toe3_03]
46 433.103577 0.001431 -0.000238 -0.000101 55.400066 -0.003764 433.103546
47 433.103577 0.001431 -0.000238 0.000464 43.040115 -0.003349 433.103546
48 433.103577 0.001431 -0.000238 0.000053 52.601879 -0.003638 433.103546
[Back_Bone]
46 1312.175781 -701.934692 0.000954 -1.561295 2.956737 -82.586060 1488.125488
47 1312.175781 -701.934692 0.000954 -1.293425 2.772225 -82.765518 1488.125488
48 1312.175781 -701.934692 0.000954 -1.025021 2.588555 -82.945801 1488.125488
[Head]
46 1406.159424 809.709290 0.001431 2.784769 -10.734311 5.071178 1622.625488
47 1406.159424 809.709290 0.001431 2.655606 -10.406583 5.305797 1622.625488
48 1406.159424 809.709290 0.001431 2.527940 -10.078340 5.539423 1622.625488
[Motor_Bone]
46 1158.364380 -417.834747 0.000477 -2.068580 -0.853146 -106.841263 1231.419434
47 1158.364380 -417.834747 0.000477 -2.008335 -0.793624 -106.782280 1231.419434
48 1158.364380 -417.834747 0.000477 -1.948029 -0.734163 -106.723206 1231.419434
[Ping_Mechanism]
46 1311.196533 -472.954285 -9.390557 0.000103 -0.000053 82.120995 1393.919067
47 1315.686523 -473.609375 -6.412283 0.000103 -0.000053 82.120995 1398.348267
48 1320.176270 -474.264496 -3.434009 0.000103 -0.000053 82.120995 1402.784424
[BN_LookIK]
46 193.241119 1380.371704 -0.002861 0.000000 89.965736 -31.038179 1393.832153
47 193.241119 1380.371704 -0.002861 0.000000 89.965736 -31.038179 1393.832153
48 193.241119 1380.371704 -0.002861 0.000000 89.965736 -31.038179 1393.832153
[bottomMouth]
46 -435.092926 615.759399 -0.000954 -0.000022 0.000016 73.527184 753.966492
47 -435.092926 615.759399 -0.000954 -0.000022 0.000016 73.527184 753.966492
48 -435.092926 615.759399 -0.000954 -0.000022 0.000016 73.527184 753.966492
[L_Mouth01]
46 554.440979 7.658243 838.222046 150.204178 23.759130 109.605339 1005.027161
47 554.440979 7.658243 838.222046 150.204178 23.759130 109.605339 1005.027161
48 554.440979 7.658243 838.222046 150.204178 23.759130 109.605339 1005.027161
[L_mouthFront]
46 551.629089 934.514771 339.150421 0.000081 2.804060 79.119301 1136.941284
47 551.629089 934.514771 339.150421 0.000081 2.804060 79.119301 1136.941284
48 551.629089 934.514771 339.150421 0.000081 2.804060 79.119301 1136.941284
[mouthGun]
46 55.332661 1627.420898 0.000000 0.000023 0.000009 -11.038128 1628.361328
47 55.332661 1627.420898 0.000000 0.000023 0.000009 -11.038128 1628.361328
48 55.332661 1627.420898 0.000000 0.000023 0.000009 -11.038128 1628.361328
[R_Mouth01]
46 554.442383 7.659197 -838.223938 29.795891 -23.759109 109.605331 1005.029541
47 554.442383 7.659197 -838.223938 29.795891 -23.759109 109.605331 1005.029541
48 554.442383 7.659197 -838.223938 29.795891 -23.759109 109.605331 1005.029541
[R_mouthFront]
46 551.629089 934.514282 -339.151367 0.000029 -2.803930 79.119133 1136.941162
47 551.629089 934.514282 -339.151367 0.000029 -2.803930 79.119133 1136.941162
48 551.629089 934.514282 -339.151367 0.000029 -2.803930 79.119133 1136.941162
[TopMouth]
46 461.269867 -56.106091 -0.008583 -0.000059 -0.000268 92.025169 464.669525
47 461.269867 -56.106091 -0.008583 -0.000059 -0.000268 92.025169 464.669525
48 461.269867 -56.106091 -0.008583 -0.000059 -0.000268 92.025169 464.669525
[weapon_bone]
46 -987.239868 1448.372803 0.001431 0.000000 89.965736 -31.038221 1752.833740
47 -987.239868 1448.372803 0.001431 0.000000 89.965736 -31.038221 1752.833740
48 -987.239868 1448.372803 0.001431 0.000000 89.965736 -31.038221 1752.833740
